<?xml version="1.0" encoding="UTF-8" standalone="no"?>
<svg width="289px" height="36px" viewBox="0 0 289 36" version="1.1" xmlns="http://www.w3.org/2000/svg" xmlns:xlink="http://www.w3.org/1999/xlink">
 <title>googleCloudDatalabLog</title>
 <g id="Group-1" stroke="none" stroke-width="1" fill="none" fill-rule="evenodd">
   <path d="M24.4864795,17.2442472 C24.2052263,17.2794038 23.8272981,17.3350677 23.3526834,17.4112404 C22.8780687,17.4874131 22.4942811,17.5958112 22.2013091,17.7364377 C21.8497427,17.912221 21.6007202,18.1612434 21.4542342,18.4835127 C21.3077481,18.8057819 21.2345062,19.1837101 21.2345062,19.6173087 L21.2345062,21.5509144 C21.2345062,22.9571802 21.2432953,23.9063953 21.2608736,24.3985883 C21.2784519,24.8907813 21.2989596,25.2950766 21.3223974,25.6114864 C19.7637862,26.3146193 18.2110578,26.8536797 16.6641655,27.2286839 C15.1172732,27.6036881 13.5997009,27.7911874 12.111403,27.7911874 C10.5176352,27.7911874 8.98248477,27.4923604 7.50590577,26.8946975 C6.02932676,26.2970345 4.74026918,25.4474284 3.63869436,24.3458536 C2.52540067,23.2325599 1.64063842,21.8790494 0.984381084,20.2852816 C0.328123747,18.6915138 0,16.9102706 0,14.9414986 C0,13.0430399 0.313475365,11.2823044 0.9404355,9.65923939 C1.56739563,8.03617436 2.45508756,6.62700006 3.6035379,5.4316742 C4.71683159,4.25978609 6.04397496,3.34865676 7.58500782,2.69825886 C9.12604067,2.04786097 10.7754484,1.7226669 12.5332806,1.7226669 C13.9395463,1.7226669 15.164151,1.89258812 16.2071314,2.23243567 C17.2501118,2.57228322 18.1700302,2.98243791 18.9669141,3.46291203 L19.6876217,2.26759214 L21.0938804,2.26759214 L21.2520845,10.986396 L19.8106693,10.986396 C19.5645728,10.0254478 19.2598865,9.07916233 18.8966012,8.14751129 C18.5333159,7.21586025 18.0645676,6.3809025 17.4903425,5.642613 C16.9161173,4.90432349 16.2159247,4.31545856 15.3897436,3.87600052 C14.5635624,3.43654248 13.5762615,3.21681676 12.4278112,3.21681676 C11.1738909,3.21681676 10.0547546,3.4716986 9.07036856,3.98146992 C8.08598255,4.49124124 7.23051707,5.25002741 6.50394645,6.25785118 C5.78909471,7.2305183 5.23831556,8.44340429 4.85159249,9.89654554 C4.46486941,11.3496868 4.27151078,12.9727275 4.27151078,14.7657163 C4.27151078,16.3477652 4.46193974,17.8389704 4.84280337,19.2393767 C5.223667,20.639783 5.77737582,21.8497393 6.50394645,22.869282 C7.23051707,23.9122624 8.13871673,24.7325717 9.22857266,25.3302347 C10.3184286,25.9278976 11.554752,26.2267246 12.93758,26.2267246 C13.9688415,26.2267246 14.9092676,26.0685221 15.7588865,25.7521123 C16.6085053,25.4357025 17.209089,25.1017194 17.5606554,24.750153 C17.6544065,24.1407712 17.704211,23.5255391 17.7100704,22.9044384 C17.7159298,22.2833377 17.7188595,21.755996 17.7188595,21.3223974 L17.7188595,19.9512952 C17.7188595,19.4591022 17.651477,19.0225804 17.5167098,18.6417168 C17.3819427,18.2608531 17.1036234,17.9825339 16.6817437,17.8067507 C16.2950207,17.6309675 15.7706086,17.499132 15.1084918,17.4112404 C14.446375,17.3233488 13.9278223,17.267685 13.5528181,17.2442472 L13.5528181,15.9610361 L24.4864795,15.9610361 L24.4864795,17.2442472 Z M42.390887,18.3692542 C42.390887,19.5880178 42.1975284,20.7862554 41.8108053,21.9640029 C41.4240822,23.1417505 40.8733031,24.1407701 40.1584513,24.9610918 C39.3498485,25.8986023 38.4123521,26.5958652 37.3459339,27.0529016 C36.2795158,27.5099379 35.0842078,27.7384527 33.7599743,27.7384527 C32.6583995,27.7384527 31.6095753,27.5304457 30.6134705,27.1144254 C29.6173656,26.6984051 28.7326033,26.0919621 27.9591572,25.2950782 C27.1974299,24.5099132 26.5909869,23.551909 26.13981,22.421037 C25.6886331,21.290165 25.463048,20.0216151 25.463048,18.6153494 C25.463048,15.9082879 26.2511309,13.6934526 27.8273204,11.9707771 C29.4035099,10.2481016 31.4689317,9.38677676 34.0236478,9.38677676 C36.4494562,9.38677676 38.4504251,10.2041565 40.0266146,11.8389404 C41.6028041,13.4737243 42.390887,15.6504738 42.390887,18.3692542 L42.390887,18.3692542 Z M38.7521926,18.4044106 C38.7521926,17.5254945 38.6643023,16.5967872 38.4885191,15.6182606 C38.3127359,14.639734 38.049065,13.8106356 37.6974986,13.1309405 C37.3224944,12.4043699 36.8303088,11.8213643 36.220927,11.3819063 C35.6115452,10.9424482 34.8674074,10.7227225 33.9884913,10.7227225 C33.0861375,10.7227225 32.3156326,10.9453779 31.6769536,11.3906954 C31.0382746,11.8360129 30.5197219,12.4453856 30.1212799,13.2188317 C29.7462757,13.9336834 29.4826049,14.7481335 29.3302594,15.6622062 C29.1779139,16.5762789 29.1017424,17.4610411 29.1017424,18.3165195 C29.1017424,19.441532 29.1925623,20.4815671 29.374205,21.4366559 C29.5558476,22.3917447 29.8458856,23.2442805 30.2443276,23.9942889 C30.6427695,24.7442973 31.1437442,25.3331622 31.7472665,25.7609014 C32.3507889,26.1886406 33.0978564,26.4025069 33.9884913,26.4025069 C35.4533514,26.4025069 36.6135033,25.6935253 37.4689816,24.2755407 C38.3244599,22.8575561 38.7521926,20.9005323 38.7521926,18.4044106 L38.7521926,18.4044106 Z M61.2972538,18.3692542 C61.2972538,19.5880178 61.1038952,20.7862554 60.7171721,21.9640029 C60.3304491,23.1417505 59.7796699,24.1407701 59.0648182,24.9610918 C58.2562154,25.8986023 57.318719,26.5958652 56.2523008,27.0529016 C55.1858826,27.5099379 53.9905747,27.7384527 52.6663411,27.7384527 C51.5647663,27.7384527 50.5159422,27.5304457 49.5198373,27.1144254 C48.5237324,26.6984051 47.6389702,26.0919621 46.865524,25.2950782 C46.1037968,24.5099132 45.4973538,23.551909 45.0461768,22.421037 C44.5949999,21.290165 44.3694149,20.0216151 44.3694149,18.6153494 C44.3694149,15.9082879 45.1574978,13.6934526 46.7336873,11.9707771 C48.3098768,10.2481016 50.3752986,9.38677676 52.9300146,9.38677676 C55.355823,9.38677676 57.3567919,10.2041565 58.9329814,11.8389404 C60.5091709,13.4737243 61.2972538,15.6504738 61.2972538,18.3692542 L61.2972538,18.3692542 Z M57.6585595,18.4044106 C57.6585595,17.5254945 57.5706692,16.5967872 57.394886,15.6182606 C57.2191028,14.639734 56.9554319,13.8106356 56.6038655,13.1309405 C56.2288613,12.4043699 55.7366757,11.8213643 55.1272938,11.3819063 C54.517912,10.9424482 53.7737742,10.7227225 52.8948582,10.7227225 C51.9925043,10.7227225 51.2219995,10.9453779 50.5833204,11.3906954 C49.9446414,11.8360129 49.4260887,12.4453856 49.0276468,13.2188317 C48.6526426,13.9336834 48.3889717,14.7481335 48.2366263,15.6622062 C48.0842808,16.5762789 48.0081092,17.4610411 48.0081092,18.3165195 C48.0081092,19.441532 48.0989292,20.4815671 48.2805718,21.4366559 C48.4622145,22.3917447 48.7522524,23.2442805 49.1506944,23.9942889 C49.5491364,24.7442973 50.050111,25.3331622 50.6536334,25.7609014 C51.2571557,26.1886406 52.0042232,26.4025069 52.8948582,26.4025069 C54.3597183,26.4025069 55.5198701,25.6935253 56.3753484,24.2755407 C57.2308267,22.8575561 57.6585595,20.9005323 57.6585595,18.4044106 L57.6585595,18.4044106 Z M78.1645456,25.4181258 C78.6333008,25.8634433 79.0024401,26.3673477 79.2719743,26.9298539 C79.5415086,27.4923602 79.6762737,28.1896232 79.6762737,29.0216637 C79.6762737,29.8537043 79.4946338,30.6359279 79.1313484,31.3683579 C78.7680631,32.100788 78.217284,32.7365278 77.4789945,33.2755963 C76.6938295,33.8263837 75.756333,34.2541164 74.6664771,34.5588073 C73.5766212,34.8634982 72.2289701,35.0158414 70.6234834,35.0158414 C67.998454,35.0158414 66.0355709,34.6320538 64.7347751,33.8644671 C63.4339793,33.0968804 62.7835912,31.9748144 62.7835912,30.4982354 C62.7835912,29.3029095 63.2523394,28.3595537 64.1898499,27.6681398 C65.1273603,26.9767258 66.3226683,26.6017272 67.7758095,26.5431328 L67.7758095,26.2970375 C67.4242431,26.1915676 67.0609632,26.0597322 66.685959,25.9015273 C66.3109548,25.7433224 65.9886904,25.5587528 65.7191562,25.3478129 C65.4144653,25.1017164 65.1683725,24.8116785 64.9808704,24.4776903 C64.7933683,24.1437022 64.6996186,23.7306179 64.6996186,23.2384249 C64.6996186,22.6173242 64.9193443,22.0460373 65.3588024,21.5245471 C65.7982604,21.0030569 66.4632969,20.5548164 67.3539319,20.1798122 L67.3539319,19.9161387 C66.2289193,19.3887891 65.3558758,18.7120338 64.7347751,17.8858527 C64.1136744,17.0596716 63.8031287,16.1016675 63.8031287,15.0118115 C63.8031287,13.3711682 64.4154311,12.0235171 65.6400541,10.9688178 C66.8646772,9.9141185 68.432054,9.38677676 70.3422316,9.38677676 C70.8695813,9.38677676 71.3939933,9.43951094 71.9154835,9.54498087 C72.4369737,9.6504508 72.9672452,9.78521591 73.5063137,9.94928024 L79.5532261,9.94928024 L79.5532261,11.6367907 L75.4750758,11.6367907 L75.4750758,11.7422601 C75.9086744,12.246172 76.2309388,12.8028105 76.4418787,13.4121923 C76.6528186,14.0215741 76.7582869,14.619228 76.7582869,15.2051721 C76.7582869,16.7286266 76.1401252,18.0176842 74.9037833,19.0723835 C73.6674413,20.1270828 72.2289702,20.6544245 70.5883269,20.6544245 L68.4613606,20.6544245 C68.1918264,20.7481756 67.9105774,20.9180968 67.6176054,21.1641933 C67.3246334,21.4102898 67.1781496,21.7442729 67.1781496,22.1661526 C67.1781496,22.5997512 67.301196,22.9308046 67.5472925,23.1593228 C67.793389,23.387841 68.092216,23.5431138 68.4437824,23.625146 C68.7836299,23.7188971 69.1791362,23.7774906 69.6303132,23.8009284 C70.0814901,23.8243661 70.5473086,23.8419442 71.0277827,23.8536631 C71.5434135,23.8653819 72.2494655,23.900538 73.1459599,23.9591325 C74.0424543,24.0177269 74.678194,24.052883 75.0531982,24.0646019 C75.5922668,24.0880396 76.1342569,24.2169454 76.6791849,24.451323 C77.2241128,24.6857006 77.7192281,25.007965 78.1645456,25.4181258 L78.1645456,25.4181258 Z M73.4184225,15.1348592 C73.4184225,13.7637501 73.1401033,12.6709808 72.5834564,11.8565186 C72.0268096,11.0420564 71.244586,10.6348314 70.2367622,10.6348314 C69.6859748,10.6348314 69.2142969,10.7490887 68.8217144,10.9776069 C68.4291319,11.2061251 68.1097972,11.5313192 67.8637007,11.9531989 C67.6293231,12.339922 67.4623315,12.8057405 67.362721,13.3506685 C67.2631105,13.8955964 67.213306,14.4551646 67.213306,15.0293898 C67.213306,16.3301856 67.4974846,17.3907284 68.0658504,18.2110501 C68.6342161,19.0313717 69.3695649,19.4415264 70.2719187,19.4415264 C71.2797425,19.4415264 72.0561067,19.0343014 72.6010346,18.2198392 C73.1459626,17.4053769 73.4184225,16.3770606 73.4184225,15.1348592 L73.4184225,15.1348592 Z M76.7934434,29.6720584 C76.7934434,29.0158011 76.6411002,28.4767406 76.3364093,28.0548609 C76.0317184,27.6329812 75.5688295,27.3458729 74.9477288,27.1935274 C74.6196002,27.1466519 73.9457746,27.0939177 72.926232,27.0353233 C71.9066893,26.9767289 70.7231001,26.9474322 69.3754288,26.9474322 C68.1097896,27.1935287 67.210379,27.606613 66.6771699,28.1866976 C66.1439608,28.7667823 65.8773603,29.5138497 65.8773603,30.4279224 C65.8773603,30.8380833 65.9652506,31.2306599 66.1410338,31.6056641 C66.316817,31.9806683 66.6215033,32.3263701 67.0551019,32.6427799 C67.4652628,32.9474708 68.0160419,33.1964933 68.7074559,33.3898548 C69.3988699,33.5832163 70.2426167,33.6798957 71.2387215,33.6798957 C72.9613971,33.6798957 74.3178372,33.3488422 75.3080826,32.6867255 C76.2983281,32.0246087 76.7934434,31.0197297 76.7934434,29.6720584 L76.7934434,29.6720584 Z M89.2661767,27.2111057 L80.8110463,27.2111057 L80.8110463,26.0509423 C81.0805806,26.0275045 81.3676889,26.0011374 81.6723798,25.9718402 C81.9770707,25.942543 82.2290228,25.8985979 82.4282438,25.8400035 C82.7563725,25.7345335 83.0024653,25.5499639 83.1665296,25.2862891 C83.330594,25.0226143 83.4126249,24.6798421 83.4126249,24.2579624 L83.4126249,4.18361961 C83.4126249,3.76173989 83.3218049,3.36623359 83.1401623,2.99708884 C82.9585196,2.62794408 82.7212158,2.33790613 82.4282438,2.12696627 C82.217304,1.9863397 81.8305867,1.85743394 81.2680804,1.74024513 C80.7055741,1.62305632 80.254404,1.55274409 79.9145564,1.52930633 L79.9145564,0.404299374 L86.4360811,0 L86.6821764,0.263673505 L86.6821764,24.0470236 C86.6821764,24.4571845 86.7583479,24.7940972 86.9106934,25.0577721 C87.0630389,25.3214469 87.3091317,25.5235945 87.6489792,25.6642211 C87.9067946,25.7814099 88.1616764,25.8693002 88.4136324,25.9278946 C88.6655883,25.986489 88.9497669,26.0275045 89.2661767,26.0509423 L89.2661767,27.2111057 Z M106.344407,23.1329555 C105.617837,24.5157834 104.645184,25.6173417 103.42642,26.4376634 C102.207657,27.2579851 100.807272,27.6681398 99.2252226,27.6681398 C97.8306758,27.6681398 96.6090008,27.4220469 95.5601609,26.9298539 C94.5113211,26.4376609 93.6470666,25.7696947 92.9673715,24.9259353 C92.2876764,24.0821759 91.7808424,23.0978046 91.4468542,21.9727921 C91.1128661,20.8477795 90.9458746,19.6583309 90.9458746,18.4044106 C90.9458746,17.279398 91.1245848,16.1749101 91.4820107,15.0909136 C91.8394366,14.0069171 92.3638486,13.0313349 93.0552626,12.1641377 C93.7232388,11.3320971 94.5523372,10.6612013 95.5425827,10.1514299 C96.5328281,9.6416586 97.6431755,9.38677676 98.873658,9.38677676 C100.139297,9.38677676 101.223277,9.58599475 102.125631,9.98443671 C103.027985,10.3828787 103.760404,10.9277985 104.32291,11.6192124 C104.861979,12.2754698 105.263345,13.0489043 105.527019,13.9395393 C105.790694,14.8301742 105.92253,15.7969674 105.92253,16.8399478 L105.92253,18.0001112 L94.4439431,18.0001112 C94.4439431,19.1368427 94.5523411,20.1680888 94.7691404,21.0938804 C94.9859397,22.019672 95.3287118,22.834122 95.7974671,23.5372548 C96.2545034,24.2169499 96.8521574,24.7530807 97.5904469,25.1456632 C98.3287364,25.5382457 99.2076393,25.7345341 100.227182,25.7345341 C101.270162,25.7345341 102.169573,25.4913709 102.925441,25.0050374 C103.681309,24.5187038 104.410798,23.6427306 105.113931,22.3770914 L106.344407,23.1329555 Z M102.459618,16.5235396 C102.459618,15.8672823 102.403954,15.16416 102.292624,14.4141516 C102.181295,13.6641432 102.002585,13.0371925 101.756488,12.5332806 C101.486954,11.9942121 101.117815,11.5547606 100.64906,11.2149131 C100.180304,10.8750655 99.576791,10.7051443 98.8385015,10.7051443 C97.608019,10.7051443 96.585562,11.2178376 95.7710997,12.2432397 C94.9566375,13.2686418 94.5142564,14.6953942 94.4439431,16.5235396 L102.459618,16.5235396 Z M133.241058,22.0040422 C133.131682,23.0157723 132.894703,23.9226699 132.530116,24.7247622 C132.165529,25.5268545 131.675622,26.2058884 131.06038,26.7618842 C130.445139,27.31788 129.706861,27.7439851 128.845523,28.0402124 C127.984185,28.3364396 127.00665,28.484551 125.912888,28.484551 C124.782667,28.484551 123.75728,28.2703592 122.836697,27.841969 C121.916113,27.4135787 121.127705,26.8051826 120.471448,26.0167624 C119.81519,25.2283421 119.309333,24.2827077 118.95386,23.1798308 C118.598387,22.0769538 118.420654,20.8556043 118.420654,19.5157456 L118.420654,17.013777 C118.420654,15.6739183 118.598387,14.4502902 118.95386,13.3428559 C119.309333,12.2354216 119.817469,11.2897872 120.478284,10.5059243 C121.139098,9.72206138 121.9389,9.11366526 122.877713,8.68071771 C123.816525,8.24777016 124.869256,8.03129964 126.035935,8.03129964 C127.093239,8.03129964 128.045709,8.17713241 128.893375,8.46880234 C129.74104,8.76047227 130.467926,9.18657741 131.074052,9.74713055 C131.680179,10.3076837 132.167807,10.9912748 132.536952,11.7979245 C132.906097,12.6045741 133.140796,13.5183076 133.241058,14.5391524 L131.545735,14.5391524 C131.445473,13.7370601 131.263182,13.0192894 130.998857,12.3858187 C130.734531,11.7523481 130.376785,11.2214257 129.925608,10.7930355 C129.474431,10.3646453 128.927558,10.0365215 128.284973,9.80865437 C127.642387,9.58078724 126.892716,9.46685538 126.035935,9.46685538 C125.106237,9.46685538 124.276813,9.64686772 123.547639,10.0068978 C122.818464,10.3669279 122.198674,10.8750639 121.688252,11.5313213 C121.17783,12.1875786 120.788183,12.9782657 120.5193,13.9034062 C120.250416,14.8285468 120.115977,15.8562121 120.115977,16.9864331 L120.115977,19.5157456 C120.115977,20.6095078 120.24358,21.6189441 120.498792,22.5440846 C120.754003,23.4692252 121.127699,24.2667482 121.619892,24.9366776 C122.112085,25.6066069 122.718203,26.1284148 123.438263,26.5021169 C124.158323,26.875819 124.98319,27.0626673 125.912888,27.0626673 C127.672022,27.0626673 128.998189,26.6411194 129.891428,25.798011 C130.784667,24.9549026 131.336097,23.690259 131.545735,22.0040422 L133.241058,22.0040422 Z M138.878202,28.2111119 L137.237567,28.2111119 L137.237567,7.21098207 L138.878202,7.21098207 L138.878202,28.2111119 Z M142.51924,20.5958304 C142.51924,19.5202976 142.676466,18.5268118 142.990923,17.6153432 C143.305379,16.7038747 143.749714,15.9177449 144.323939,15.2569302 C144.898164,14.5961156 145.59087,14.0788649 146.402077,13.7051628 C147.213284,13.3314607 148.115624,13.1446125 149.109125,13.1446125 C150.120855,13.1446125 151.034588,13.3314607 151.850353,13.7051628 C152.666117,14.0788649 153.361101,14.5961156 153.935326,15.2569302 C154.509552,15.9177449 154.951607,16.7038747 155.261506,17.6153432 C155.571406,18.5268118 155.726353,19.5202976 155.726353,20.5958304 L155.726353,21.0470051 C155.726353,22.1225379 155.571406,23.1160237 155.261506,24.0274923 C154.951607,24.9389608 154.509552,25.7250906 153.935326,26.3859053 C153.361101,27.0467199 152.668396,27.5616919 151.857189,27.9308367 C151.045982,28.2999814 150.139084,28.484551 149.136469,28.484551 C148.133853,28.484551 147.226956,28.2999814 146.415749,27.9308367 C145.604542,27.5616919 144.909557,27.0467199 144.330775,26.3859053 C143.751992,25.7250906 143.305379,24.9389608 142.990923,24.0274923 C142.676466,23.1160237 142.51924,22.1225379 142.51924,21.0470051 L142.51924,20.5958304 Z M144.159875,21.0470051 C144.159875,21.8582121 144.26925,22.6306701 144.488002,23.3644022 C144.706755,24.0981344 145.025764,24.74071 145.44504,25.2921485 C145.864315,25.843587 146.383844,26.2833639 147.003643,26.6114926 C147.623442,26.9396213 148.334376,27.1036831 149.136469,27.1036831 C149.938561,27.1036831 150.647217,26.9396213 151.262458,26.6114926 C151.8777,26.2833639 152.39495,25.843587 152.814226,25.2921485 C153.233501,24.74071 153.55251,24.0981344 153.771263,23.3644022 C153.990015,22.6306701 154.09939,21.8582121 154.09939,21.0470051 L154.09939,20.5958304 C154.09939,19.8028528 153.990015,19.0395094 153.771263,18.3057772 C153.55251,17.572045 153.233501,16.9271907 152.814226,16.3711949 C152.39495,15.8151991 151.873142,15.3708649 151.248786,15.0381789 C150.62443,14.7054929 149.911217,14.5391524 149.109125,14.5391524 C148.316147,14.5391524 147.612048,14.7054929 146.996807,15.0381789 C146.381566,15.3708649 145.864315,15.8151991 145.44504,16.3711949 C145.025764,16.9271907 144.706755,17.572045 144.488002,18.3057772 C144.26925,19.0395094 144.159875,19.8028528 144.159875,20.5958304 L144.159875,21.0470051 Z M168.719012,26.3380534 C168.254163,27.0125401 167.636652,27.5389053 166.866461,27.9171647 C166.09627,28.2954242 165.141521,28.484551 164.002185,28.484551 C163.273011,28.484551 162.612206,28.3820124 162.019751,28.176932 C161.427297,27.9718515 160.916882,27.6460064 160.488492,27.1993869 C160.060102,26.7527673 159.729699,26.1762721 159.497275,25.469884 C159.26485,24.7634959 159.14864,23.9044497 159.14864,22.8927196 L159.14864,13.4180517 L160.775603,13.4180517 L160.775603,22.9200635 C160.775603,23.7130411 160.866749,24.3738459 161.049042,24.9024977 C161.231336,25.4311494 161.477429,25.8549759 161.787328,26.1739899 C162.097227,26.4930039 162.459531,26.7208676 162.874249,26.8575879 C163.288967,26.9943081 163.728744,27.0626673 164.193593,27.0626673 C164.84985,27.0626673 165.428624,26.9897509 165.929932,26.8439159 C166.431239,26.6980809 166.864181,26.4930036 167.228768,26.2286777 C167.593355,25.9643519 167.894135,25.6544572 168.131117,25.2989845 C168.368099,24.9435118 168.554947,24.5515862 168.691668,24.123196 L168.691668,13.4180517 L170.332303,13.4180517 L170.332303,28.2111119 L168.746355,28.2111119 L168.719012,26.3380534 Z M174.028029,20.6778622 C174.028029,19.5294118 174.16019,18.4926319 174.424516,17.5674914 C174.688841,16.6423508 175.067095,15.8516638 175.559288,15.1954064 C176.051481,14.5391491 176.650763,14.0332916 177.357151,13.6778189 C178.063539,13.3223462 178.858783,13.1446125 179.742908,13.1446125 C180.791097,13.1446125 181.691158,13.3542471 182.44312,13.7735226 C183.195081,14.1927981 183.817149,14.771572 184.309342,15.5098615 L184.309342,7.21098207 L185.936305,7.21098207 L185.936305,28.2111119 L184.405046,28.2111119 L184.336686,26.2423497 C183.844493,26.9441805 183.217868,27.493332 182.456792,27.8898208 C181.695716,28.2863096 180.781982,28.484551 179.715564,28.484551 C178.840554,28.484551 178.052146,28.2999814 177.350315,27.9308367 C176.648484,27.5616919 176.051481,27.0467199 175.559288,26.3859053 C175.067095,25.7250906 174.688841,24.9344035 174.424516,24.0138203 C174.16019,23.0932371 174.028029,22.0769649 174.028029,20.9649733 L174.028029,20.6778622 Z M175.682336,20.9649733 C175.682336,21.8308684 175.768924,22.6352273 175.942103,23.3780742 C176.115282,24.120921 176.379604,24.7657753 176.735077,25.3126564 C177.090549,25.8595376 177.539441,26.2879213 178.081765,26.5978206 C178.624088,26.9077199 179.268943,27.0626673 180.016347,27.0626673 C180.572343,27.0626673 181.075922,26.9965868 181.527098,26.8644238 C181.978275,26.7322609 182.379316,26.5476913 182.730231,26.3107095 C183.081146,26.0737277 183.386484,25.7911767 183.646252,25.463048 C183.906021,25.1349193 184.127049,24.7794519 184.309342,24.3966352 L184.309342,17.4512797 C184.145278,17.0775776 183.944758,16.717553 183.707776,16.3711949 C183.470794,16.0248369 183.179129,15.7172209 182.832771,15.4483377 C182.486413,15.1794545 182.085372,14.9652626 181.629638,14.8057556 C181.173904,14.6462486 180.64526,14.5664963 180.043691,14.5664963 C179.287172,14.5664963 178.635482,14.7237222 178.088601,15.0381789 C177.54172,15.3526355 177.090549,15.7832979 176.735077,16.3301791 C176.379604,16.8770602 176.115282,17.5241931 175.942103,18.2715973 C175.768924,19.0190015 175.682336,19.8210818 175.682336,20.6778622 L175.682336,20.9649733 Z M197.634425,28.2111119 L197.634425,8.30473883 L203.198912,8.30473883 C204.438509,8.30473883 205.580107,8.51893072 206.623738,8.94732092 C207.667369,9.37571113 208.565152,9.98638588 209.317114,10.7793635 C210.069076,11.5723411 210.654685,12.5248114 211.073961,13.636803 C211.493236,14.7487946 211.702871,15.9883732 211.702871,17.355576 L211.702871,19.1739466 C211.702871,20.5411494 211.493236,21.780728 211.073961,22.8927196 C210.654685,24.0047112 210.066797,24.9549029 209.310278,25.7433232 C208.553759,26.5317434 207.646862,27.1401396 206.589558,27.5685298 C205.532255,27.99692 204.365592,28.2111119 203.089536,28.2111119 L197.634425,28.2111119 Z M199.316076,9.74029457 L199.316076,26.7892281 L203.089536,26.7892281 C204.155955,26.7892281 205.117539,26.6046585 205.97432,26.2355137 C206.8311,25.866369 207.560264,25.3468397 208.161833,24.6769103 C208.763403,24.006981 209.225966,23.2049007 209.549537,22.2706455 C209.873109,21.3363902 210.034892,20.3041676 210.034892,19.1739466 L210.034892,17.3145601 C210.034892,16.1661098 209.87083,15.1247726 209.542701,14.1905174 C209.214573,13.2562622 208.752009,12.4610178 208.154997,11.8047605 C207.557986,11.1485031 206.840215,10.640367 206.001664,10.280337 C205.163113,9.92030691 204.228872,9.74029457 203.198912,9.74029457 L199.316076,9.74029457 Z M225.023656,28.2111119 C224.93251,27.9559007 224.861872,27.6437274 224.811741,27.2745826 C224.76161,26.9054379 224.727431,26.5294628 224.709201,26.146646 C224.463105,26.46566 224.171439,26.7664401 223.834196,27.0489953 C223.496953,27.3315505 223.118699,27.5776434 222.699423,27.7872811 C222.280148,27.9969189 221.819863,28.165538 221.318555,28.2931436 C220.817248,28.4207492 220.274932,28.484551 219.691592,28.484551 C218.971532,28.484551 218.317563,28.3797337 217.729666,28.170096 C217.141769,27.9604582 216.640469,27.666514 216.22575,27.2882546 C215.811032,26.9099952 215.489744,26.4656609 215.261877,25.9552385 C215.03401,25.4448162 214.920078,24.8888287 214.920078,24.2872595 C214.920078,23.5671993 215.075026,22.9177878 215.384925,22.3390053 C215.694824,21.7602227 216.141437,21.2680371 216.724777,20.8624336 C217.308117,20.4568301 218.016773,20.1469355 218.850767,19.9327404 C219.68476,19.7185453 220.62128,19.6114493 221.660354,19.6114493 L224.695529,19.6114493 L224.695529,17.9297983 C224.695529,16.8724948 224.369684,16.0407923 223.717984,15.4346657 C223.066284,14.8285391 222.116093,14.5254804 220.867381,14.5254804 C220.293156,14.5254804 219.764512,14.6029541 219.281433,14.7579037 C218.798355,14.9128534 218.381364,15.1270453 218.030449,15.4004858 C217.679534,15.6739264 217.406097,15.9906569 217.210132,16.350687 C217.014166,16.7107171 216.916184,17.0958067 216.916184,17.5059676 L215.275549,17.4922956 C215.275549,16.9362998 215.412267,16.3985414 215.685708,15.8790044 C215.959149,15.3594673 216.344238,14.896904 216.840989,14.4913005 C217.337739,14.085697 217.934742,13.7598519 218.632015,13.5137554 C219.329289,13.2676589 220.101747,13.1446125 220.949412,13.1446125 C221.733275,13.1446125 222.455603,13.2448725 223.116418,13.4453956 C223.777233,13.6459187 224.344613,13.9466988 224.818577,14.3477449 C225.292541,14.7487911 225.66168,15.2500912 225.926006,15.8516605 C226.190332,16.4532297 226.322493,17.1550499 226.322493,17.9571422 L226.322493,25.121249 C226.322493,25.3764602 226.331607,25.6407821 226.349836,25.9142227 C226.368066,26.1876632 226.397688,26.4519851 226.438704,26.7071963 C226.47972,26.9624075 226.527572,27.2062217 226.58226,27.4386461 C226.636948,27.6710706 226.70075,27.8738693 226.773667,28.0470483 L226.773667,28.2111119 L225.023656,28.2111119 Z M219.883,27.0353233 C220.475454,27.0353233 221.024606,26.9601283 221.530471,26.809736 C222.036336,26.6593437 222.494342,26.4519877 222.904503,26.1876619 C223.314664,25.923336 223.670131,25.61572 223.970916,25.2648046 C224.2717,24.9138892 224.513236,24.5333568 224.695529,24.123196 L224.695529,20.8692696 L221.892778,20.8692696 C221.054227,20.8692696 220.304555,20.9444646 219.64374,21.0948569 C218.982926,21.2452492 218.42466,21.4617198 217.968925,21.744275 C217.513191,22.0268303 217.16456,22.3709045 216.92302,22.776508 C216.681481,23.1821115 216.560713,23.6401175 216.560713,24.1505399 C216.560713,24.551586 216.638187,24.9275612 216.793137,25.2784765 C216.948086,25.6293919 217.169114,25.9347293 217.456227,26.1944978 C217.743339,26.4542664 218.091971,26.6593437 218.502132,26.809736 C218.912293,26.9601283 219.372577,27.0353233 219.883,27.0353233 L219.883,27.0353233 Z M233.326833,9.6309189 L233.326833,13.4180517 L236.389352,13.4180517 L236.389352,14.7579037 L233.326833,14.7579037 L233.326833,24.6153865 C233.326833,25.1349236 233.379241,25.5519142 233.48406,25.8663708 C233.588879,26.1808274 233.730155,26.4269203 233.907891,26.6046566 C234.085627,26.782393 234.290705,26.9008821 234.523129,26.9601276 C234.755554,27.019373 234.999368,27.0489953 235.254579,27.0489953 C235.500676,27.0489953 235.737654,27.0330448 235.965521,27.0011434 C236.193388,26.969242 236.398465,26.9396198 236.580759,26.9122757 L236.649119,28.2521277 C236.448596,28.3250452 236.186553,28.3820111 235.862981,28.4230272 C235.53941,28.4640433 235.218122,28.484551 234.899108,28.484551 C234.434259,28.484551 234.003597,28.4230278 233.607108,28.2999796 C233.210619,28.1769313 232.871102,27.9650181 232.588547,27.6642335 C232.305992,27.3634489 232.084964,26.9646874 231.925457,26.467937 C231.76595,25.9711867 231.686198,25.353676 231.686198,24.6153865 L231.686198,14.7579037 L228.965478,14.7579037 L228.965478,13.4180517 L231.686198,13.4180517 L231.686198,9.6309189 L233.326833,9.6309189 Z M249.217947,28.2111119 C249.1268,27.9559007 249.056162,27.6437274 249.006031,27.2745826 C248.9559,26.9054379 248.921721,26.5294628 248.903491,26.146646 C248.657395,26.46566 248.365729,26.7664401 248.028486,27.0489953 C247.691243,27.3315505 247.312989,27.5776434 246.893713,27.7872811 C246.474438,27.9969189 246.014153,28.165538 245.512846,28.2931436 C245.011538,28.4207492 244.469222,28.484551 243.885882,28.484551 C243.165822,28.484551 242.511853,28.3797337 241.923956,28.170096 C241.336059,27.9604582 240.834759,27.666514 240.420041,27.2882546 C240.005322,26.9099952 239.684035,26.4656609 239.456167,25.9552385 C239.2283,25.4448162 239.114368,24.8888287 239.114368,24.2872595 C239.114368,23.5671993 239.269316,22.9177878 239.579215,22.3390053 C239.889114,21.7602227 240.335727,21.2680371 240.919067,20.8624336 C241.502407,20.4568301 242.211063,20.1469355 243.045057,19.9327404 C243.879051,19.7185453 244.81557,19.6114493 245.854645,19.6114493 L248.88982,19.6114493 L248.88982,17.9297983 C248.88982,16.8724948 248.563974,16.0407923 247.912274,15.4346657 C247.260574,14.8285391 246.310383,14.5254804 245.061671,14.5254804 C244.487446,14.5254804 243.958802,14.6029541 243.475724,14.7579037 C242.992645,14.9128534 242.575655,15.1270453 242.224739,15.4004858 C241.873824,15.6739264 241.600387,15.9906569 241.404422,16.350687 C241.208456,16.7107171 241.110475,17.0958067 241.110475,17.5059676 L239.469839,17.4922956 C239.469839,16.9362998 239.606558,16.3985414 239.879998,15.8790044 C240.153439,15.3594673 240.538528,14.896904 241.035279,14.4913005 C241.532029,14.085697 242.129032,13.7598519 242.826305,13.5137554 C243.523579,13.2676589 244.296037,13.1446125 245.143703,13.1446125 C245.927566,13.1446125 246.649894,13.2448725 247.310708,13.4453956 C247.971523,13.6459187 248.538904,13.9466988 249.012867,14.3477449 C249.486831,14.7487911 249.85597,15.2500912 250.120296,15.8516605 C250.384622,16.4532297 250.516783,17.1550499 250.516783,17.9571422 L250.516783,25.121249 C250.516783,25.3764602 250.525897,25.6407821 250.544127,25.9142227 C250.562356,26.1876632 250.591978,26.4519851 250.632994,26.7071963 C250.67401,26.9624075 250.721862,27.2062217 250.77655,27.4386461 C250.831238,27.6710706 250.89504,27.8738693 250.967957,28.0470483 L250.967957,28.2111119 L249.217947,28.2111119 Z M244.07729,27.0353233 C244.669744,27.0353233 245.218896,26.9601283 245.724761,26.809736 C246.230626,26.6593437 246.688632,26.4519877 247.098793,26.1876619 C247.508954,25.923336 247.864421,25.61572 248.165206,25.2648046 C248.46599,24.9138892 248.707526,24.5333568 248.88982,24.123196 L248.88982,20.8692696 L246.087068,20.8692696 C245.248517,20.8692696 244.498845,20.9444646 243.83803,21.0948569 C243.177216,21.2452492 242.61895,21.4617198 242.163215,21.744275 C241.707481,22.0268303 241.35885,22.3709045 241.117311,22.776508 C240.875771,23.1821115 240.755004,23.6401175 240.755004,24.1505399 C240.755004,24.551586 240.832477,24.9275612 240.987427,25.2784765 C241.142377,25.6293919 241.363404,25.9347293 241.650517,26.1944978 C241.93763,26.4542664 242.286261,26.6593437 242.696422,26.809736 C243.106583,26.9601283 243.566867,27.0353233 244.07729,27.0353233 L244.07729,27.0353233 Z M256.810181,28.2111119 L255.169546,28.2111119 L255.169546,7.21098207 L256.810181,7.21098207 L256.810181,28.2111119 Z M270.691517,28.2111119 C270.60037,27.9559007 270.529732,27.6437274 270.479601,27.2745826 C270.429471,26.9054379 270.395291,26.5294628 270.377062,26.146646 C270.130965,26.46566 269.8393,26.7664401 269.502056,27.0489953 C269.164813,27.3315505 268.786559,27.5776434 268.367284,27.7872811 C267.948008,27.9969189 267.487723,28.165538 266.986416,28.2931436 C266.485108,28.4207492 265.942792,28.484551 265.359453,28.484551 C264.639392,28.484551 263.985424,28.3797337 263.397526,28.170096 C262.809629,27.9604582 262.308329,27.666514 261.893611,27.2882546 C261.478893,26.9099952 261.157605,26.4656609 260.929738,25.9552385 C260.701871,25.4448162 260.587939,24.8888287 260.587939,24.2872595 C260.587939,23.5671993 260.742886,22.9177878 261.052785,22.3390053 C261.362685,21.7602227 261.809298,21.2680371 262.392637,20.8624336 C262.975977,20.4568301 263.684633,20.1469355 264.518627,19.9327404 C265.352621,19.7185453 266.289141,19.6114493 267.328215,19.6114493 L270.36339,19.6114493 L270.36339,17.9297983 C270.36339,16.8724948 270.037545,16.0407923 269.385845,15.4346657 C268.734145,14.8285391 267.783953,14.5254804 266.535241,14.5254804 C265.961016,14.5254804 265.432372,14.6029541 264.949294,14.7579037 C264.466215,14.9128534 264.049225,15.1270453 263.698309,15.4004858 C263.347394,15.6739264 263.073958,15.9906569 262.877992,16.350687 C262.682026,16.7107171 262.584045,17.0958067 262.584045,17.5059676 L260.94341,17.4922956 C260.94341,16.9362998 261.080128,16.3985414 261.353568,15.8790044 C261.627009,15.3594673 262.012099,14.896904 262.508849,14.4913005 C263.005599,14.085697 263.602602,13.7598519 264.299876,13.5137554 C264.997149,13.2676589 265.769607,13.1446125 266.617273,13.1446125 C267.401136,13.1446125 268.123464,13.2448725 268.784278,13.4453956 C269.445093,13.6459187 270.012474,13.9466988 270.486437,14.3477449 C270.960401,14.7487911 271.32954,15.2500912 271.593866,15.8516605 C271.858192,16.4532297 271.990353,17.1550499 271.990353,17.9571422 L271.990353,25.121249 C271.990353,25.3764602 271.999467,25.6407821 272.017697,25.9142227 C272.035926,26.1876632 272.065548,26.4519851 272.106565,26.7071963 C272.147581,26.9624075 272.195432,27.2062217 272.25012,27.4386461 C272.304808,27.6710706 272.36861,27.8738693 272.441528,28.0470483 L272.441528,28.2111119 L270.691517,28.2111119 Z M265.55086,27.0353233 C266.143315,27.0353233 266.692466,26.9601283 267.198331,26.809736 C267.704196,26.6593437 268.162202,26.4519877 268.572363,26.1876619 C268.982524,25.923336 269.337991,25.61572 269.638776,25.2648046 C269.939561,24.9138892 270.181096,24.5333568 270.36339,24.123196 L270.36339,20.8692696 L267.560638,20.8692696 C266.722087,20.8692696 265.972415,20.9444646 265.311601,21.0948569 C264.650786,21.2452492 264.09252,21.4617198 263.636786,21.744275 C263.181051,22.0268303 262.83242,22.3709045 262.590881,22.776508 C262.349342,23.1821115 262.228574,23.6401175 262.228574,24.1505399 C262.228574,24.551586 262.306048,24.9275612 262.460997,25.2784765 C262.615947,25.6293919 262.836975,25.9347293 263.124087,26.1944978 C263.4112,26.4542664 263.759831,26.6593437 264.169992,26.809736 C264.580153,26.9601283 265.040438,27.0353233 265.55086,27.0353233 L265.55086,27.0353233 Z M288.359985,20.9649733 C288.359985,22.0769649 288.23466,23.0932371 287.984006,24.0138203 C287.733353,24.9344035 287.366492,25.7250906 286.883414,26.3859053 C286.400335,27.0467199 285.80789,27.5616919 285.106059,27.9308367 C284.404228,28.2999814 283.606705,28.484551 282.713466,28.484551 C281.628819,28.484551 280.701413,28.2794737 279.931222,27.8693129 C279.161031,27.459152 278.529849,26.8986073 278.037656,26.1876619 L277.969296,28.2111119 L276.438037,28.2111119 L276.438037,7.21098207 L278.065,7.21098207 L278.065,15.5645493 C278.557193,14.7989158 279.181539,14.2041915 279.938058,13.7803586 C280.694577,13.3565257 281.610589,13.1446125 282.686122,13.1446125 C283.588476,13.1446125 284.390556,13.3223462 285.092387,13.6778189 C285.794218,14.0332916 286.388942,14.5391491 286.876578,15.1954064 C287.364213,15.8516638 287.733353,16.6423508 287.984006,17.5674914 C288.23466,18.4926319 288.359985,19.5294118 288.359985,20.6778622 L288.359985,20.9649733 Z M286.71935,20.6778622 C286.71935,19.8210818 286.637319,19.0190015 286.473255,18.2715973 C286.309191,17.5241931 286.051705,16.8770602 285.700789,16.3301791 C285.349874,15.7832979 284.900982,15.3526355 284.354101,15.0381789 C283.80722,14.7237222 283.150973,14.5664963 282.385339,14.5664963 C281.76554,14.5664963 281.218668,14.6508059 280.744704,14.8194275 C280.27074,14.9880492 279.860586,15.2136343 279.514228,15.4961895 C279.16787,15.7787448 278.876204,16.1023112 278.639222,16.4668986 C278.40224,16.8314861 278.210835,17.2097398 278.065,17.6016713 L278.065,24.2735875 C278.238179,24.665519 278.454649,25.0323796 278.714418,25.3741803 C278.974186,25.715981 279.281802,26.0122038 279.637275,26.2628576 C279.992748,26.5135115 280.400624,26.7094743 280.860916,26.8507519 C281.321207,26.9920295 281.838458,27.0626673 282.412683,27.0626673 C283.150972,27.0626673 283.79127,26.9077199 284.333593,26.5978206 C284.875917,26.2879213 285.324809,25.8595376 285.680281,25.3126564 C286.035754,24.7657753 286.297797,24.120921 286.466419,23.3780742 C286.635041,22.6352273 286.71935,21.8308684 286.71935,20.9649733 L286.71935,20.6778622 Z" id="googleCloudDatalabLog" fill="#FFFFFF"></path>
 </g>
</svg>