<svg width="24px" height="24px" viewBox="0 0 24 24" version="1.1" xmlns="http://www.w3.org/2000/svg" xmlns:xlink="http://www.w3.org/1999/xlink">
  <g id="icons" stroke="none" stroke-width="1" fill="none" fill-rule="evenodd">
    <g id="iconAdd" >
      <path d="M19.0000001,3 L4.99999999,3 C3.89,3 3,3.9 3,4.99999999 L3,19.0000001 C3,20.1 3.89,21 4.99999999,21 L19.0000001,21 C20.1,21 21,20.1 21,19.0000001 L21,4.99999999 C21,3.9 20.1,3 19.0000001,3 L19.0000001,3 L19.0000001,3 Z M16.9999999,13 L13,13 L13,16.9999999 L11,16.9999999 L11,13 L7.00000001,13 L7.00000001,11 L11,11 L11,7.00000001 L13,7.00000001 L13,11 L16.9999999,11 L16.9999999,13 L16.9999999,13 Z" id="Shape" fill="#FFFFFF"></path>
      <path d="M0,0 L24,0 L24,24 L0,24 L0,0 L0,0 Z"></path>
    </g>
  </g>
</svg>