<svg width="18px" height="16px" viewBox="0 0 18 16" version="1.1" xmlns="http://www.w3.org/2000/svg" xmlns:xlink="http://www.w3.org/1999/xlink">
  <g id="icons" stroke="none" stroke-width="1" fill="none" fill-rule="evenodd">
    <g id="iconRestart" transform="translate(0.000000, -2.000000)">
      <path d="M11.6666667,10 C11.6666667,9.08333333 10.9166667,8.33333333 10,8.33333333 C9.08333333,8.33333333 8.33333333,9.08333333 8.33333333,10 C8.33333333,10.9166667 9.08333333,11.6666667 10,11.6666667 C10.9166667,11.6666667 11.6666667,10.9166667 11.6666667,10 L11.6666667,10 L11.6666667,10 Z M10,2.5 C5.85833333,2.5 2.5,5.85833333 2.5,10 L0,10 L3.33333333,13.3333333 L6.66666667,10 L4.16666667,10 C4.16666667,6.775 6.775,4.16666667 10,4.16666667 C13.225,4.16666667 15.8333333,6.775 15.8333333,10 C15.8333333,13.225 13.225,15.8333333 10,15.8333333 C8.74166667,15.8333333 7.575,15.425 6.61666667,14.75 L5.43333333,15.95 C6.7,16.9166667 8.28333333,17.5 10,17.5 C14.1416667,17.5 17.5,14.1416667 17.5,10 C17.5,5.85833333 14.1416667,2.5 10,2.5 L10,2.5 L10,2.5 Z" id="Shape" fill="#F8F8F2"></path>
      <path d="M0,0 L20,0 L20,20 L0,20 L0,0 L0,0 Z"></path>
      </g>
    </g>
</svg>