<svg width="24px" height="24px" viewBox="0 0 24 24" version="1.1" xmlns="http://www.w3.org/2000/svg" xmlns:xlink="http://www.w3.org/1999/xlink">
  <g id="icons" stroke="none" stroke-width="1" fill="none" fill-rule="evenodd">
    <g id="iconFiles">
      <path d="M14,2 L6,2 C4.9,2 4.01,2.9 4.01,4 L4,20 C4,21.1 4.89,22 5.99,22 L18,22 C19.1,22 20,21.1 20,20 L20,8 L14,2 L14,2 Z M16,18 L8,18 L8,16 L16,16 L16,18 L16,18 Z M16,14 L8,14 L8,12 L16,12 L16,14 L16,14 Z M13,9 L13,3.5 L18.5,9 L13,9 L13,9 Z" id="Shape" fill="#000000"></path>
      <path d="M0,0 L24,0 L24,24 L0,24 L0,0 Z"></path>
    </g>
  </g>
</svg>