<svg width="24px" height="24px" viewBox="0 0 24 24" version="1.1" xmlns="http://www.w3.org/2000/svg" xmlns:xlink="http://www.w3.org/1999/xlink">
  <g id="icons" stroke="none" stroke-width="1" fill="none" fill-rule="evenodd">
    <g id="iconSessions">
      <path d="M21,3 L3,3 C1.9,3 1,3.9 1,5 L1,19 C1,20.1 1.9,21 3,21 L21,21 C22.1,21 23,20.1 23,19 L23,5 C23,3.9 22.1,3 21,3 L21,3 Z M21,19 L3,19 L3,5 L13,5 L13,9 L21,9 L21,19 L21,19 Z" id="Shape" fill="#000000"></path>
      <path d="M0,0 L24,0 L24,24 L0,24 L0,0 Z"></path>
    </g>
  </g>
</svg>