<svg width="16px" height="16px" viewBox="0 0 16 16" version="1.1" xmlns="http://www.w3.org/2000/svg"
xmlns:xlink="http://www.w3.org/1999/xlink">
    <g stroke="none" stroke-width="1" fill="none">
        <g id="iconFileInline" transform="translate(1.000000, -1.000000)">
            <path d="M9.33333333,1.33333333 L4,1.33333333 C3.26666667,1.33333333 2.67333333,1.93333333 2.67333333,2.66666667 L2.66666667,13.3333333 C2.66666667,14.0666667 3.26,14.6666667 3.99333333,14.6666667 L12,14.6666667 C12.7333333,14.6666667 13.3333333,14.0666667 13.3333333,13.3333333 L13.3333333,5.33333333 L9.33333333,1.33333333 L9.33333333,1.33333333 Z M10.6666667,12 L5.33333333,12 L5.33333333,10.6666667 L10.6666667,10.6666667 L10.6666667,12 L10.6666667,12 Z M10.6666667,9.33333333 L5.33333333,9.33333333 L5.33333333,8 L10.6666667,8 L10.6666667,9.33333333 L10.6666667,9.33333333 Z M8.66666667,6 L8.66666667,2.33333333 L12.3333333,6 L8.66666667,6 L8.66666667,6 Z" id="Shape" fill="#445962"></path>
            <path d="M0,0 L16,0 L16,16 L0,16 L0,0 L0,0 Z" fill="none"></path>
        </g>
    </g>
</svg>