<?xml version="1.0" encoding="UTF-8" standalone="no"?>
<svg width="14px" height="18px" viewBox="0 0 14 18" version="1.1" xmlns="http://www.w3.org/2000/svg" xmlns:xlink="http://www.w3.org/1999/xlink">
  <g stroke="none" stroke-width="1" fill="none" fill-rule="evenodd">
    <g id="iconDelete" transform="translate(-5.000000, -3.000000)">
      <path d="M6,19 C6,20.1 6.9,21 8,21 L16,21 C17.1,21 18,20.1 18,19 L18,7 L6,7 L6,19 L6,19 Z M19,4 L15.5,4 L14.5,3 L9.5,3 L8.5,4 L5,4 L5,6 L19,6 L19,4 L19,4 Z" id="Shape" fill="#000000"></path>
      <path d="M0,0 L24,0 L24,24 L0,24 L0,0 L0,0 Z" id="Shape"></path>
    </g>
  </g>
</svg>