<svg xmlns="http://www.w3.org/2000/svg" xmlns:xlink="http://www.w3.org/1999/xlink" width="1.7778in" height="1.7778in" viewBox="0 0 128 128"><defs><linearGradient id="a" x1="63.9997" y1="122.9664" x2="63.9997" y2="9.2106" gradientTransform="matrix(1, 0, 0, -1, 0, 130)" gradientUnits="userSpaceOnUse"><stop offset="0" stop-color="#4387fd"/><stop offset="1" stop-color="#4683ea"/></linearGradient></defs><title>Artboard 1-crop</title><path d="M27.7906,115.2166,1.54,69.7493a11.499,11.499,0,0,1,0-11.499L27.7906,12.7831a11.4991,11.4991,0,0,1,9.9585-5.7495H90.25a11.4991,11.4991,0,0,1,9.9585,5.7495L126.4594,58.25a11.499,11.499,0,0,1,0,11.499l-26.2506,45.4672A11.4991,11.4991,0,0,1,90.25,120.966H37.7491A11.4989,11.4989,0,0,1,27.7906,115.2166Z" fill="url(#a)"/><path d="M85.488,50.55,49.3125,53.8749l-7.01,6.99L48.26,66.8228,42.362,77.2994,86.0286,120.966h4.222a11.4991,11.4991,0,0,0,9.9585-5.75L118.49,83.5526Z" opacity="0.07" style="isolation:isolate"/><path d="M84.7,50.2691l-41.436.0012a1.2163,1.2163,0,0,0-1.2129,1.2129l.0012,8.5663a1.216,1.216,0,0,0,1.2117,1.2117H84.6988a1.2161,1.2161,0,0,0,1.2128-1.2117V51.482A1.2163,1.2163,0,0,0,84.7,50.2691m-6.416,7.9751a2.4784,2.4784,0,1,1,2.4791-2.48,2.4839,2.4839,0,0,1-2.4791,2.48" fill="#fff"/><path d="M84.7,66.7361l-41.436.0012a1.2171,1.2171,0,0,0-1.2129,1.2146l.0012,8.5646a1.217,1.217,0,0,0,1.2117,1.2129H84.6988a1.2172,1.2172,0,0,0,1.2128-1.2129V67.95A1.2169,1.2169,0,0,0,84.7,66.7361m-6.416,7.9752a2.4781,2.4781,0,1,1,2.4791-2.48,2.4835,2.4835,0,0,1-2.4791,2.48" fill="#fff"/></svg>