<svg xmlns="http://www.w3.org/2000/svg" xmlns:xlink="http://www.w3.org/1999/xlink" width="1.7778in" height="1.7778in" viewBox="0 0 128 128"><defs><linearGradient id="a" x1="63.9997" y1="122.9664" x2="63.9997" y2="9.2106" gradientTransform="matrix(1, 0, 0, -1, 0, 130)" gradientUnits="userSpaceOnUse"><stop offset="0" stop-color="#4387fd"/><stop offset="1" stop-color="#4683ea"/></linearGradient></defs><title>Artboard 1-crop</title><path d="M27.7906,115.2166,1.54,69.7493a11.499,11.499,0,0,1,0-11.499L27.7906,12.7831a11.4992,11.4992,0,0,1,9.9585-5.7495H90.25a11.4991,11.4991,0,0,1,9.9585,5.7495L126.4594,58.25a11.499,11.499,0,0,1,0,11.499l-26.2506,45.4673a11.4991,11.4991,0,0,1-9.9585,5.7495H37.7491A11.4992,11.4992,0,0,1,27.7906,115.2166Z" fill="url(#a)"/><path d="M64.5934,25.74l-3.4479,3.5,8.65,8.65-3.99.947,8.6,9.4756-3.0562.7042L61.018,38.6849,57.4857,42.08l7.3693,7.3693-6.6526-.0809L53.797,51.943l4.3641,4.3642L43.833,81.187l4.14,11.0881,28.691,28.691H90.25a11.4989,11.4989,0,0,0,9.9585-5.7495L119.9235,81.07Z" opacity="0.07" style="isolation:isolate"/><circle cx="59.1368" cy="40.2574" r="2.453" fill="#fff"/><circle cx="68.3923" cy="36.2201" r="3.6796" fill="#fff"/><circle cx="62.8163" cy="27.43" r="2.453" fill="#fff"/><path d="M73.145,82l-1.7321-3h11.859L71.4726,58.5638l-.411.0029L81.2141,76h-26.4L51.65,81.4793a1.2265,1.2265,0,0,0,0,1.2265l3.849,6.6668h25.354l4.204-7.28L85.004,82Z" fill="#fff"/><path d="M85.5259,80.7308,72.1367,57.54a1.226,1.226,0,0,1-.1643-.6133V52h1.953a.4966.4966,0,0,0,.5-.496V48.6786a.5.5,0,0,0-.5-.5H54.0746a.5.5,0,0,0-.5.5V51.504a.4967.4967,0,0,0,.5.496h1.953v4.927a1.2273,1.2273,0,0,1-.1643.6133l-13.3892,23.19a2.4529,2.4529,0,0,0,0,2.453l4.8921,8.4734a2.453,2.453,0,0,0,2.1244,1.2265H78.5094a2.4529,2.4529,0,0,0,2.1244-1.2265l4.8921-8.4734A2.4529,2.4529,0,0,0,85.5259,80.7308Zm-4.1782,1.7364-3.3338,5.7745a1.2265,1.2265,0,0,1-1.0622.6133H51.0485a1.2264,1.2264,0,0,1-1.0622-.6132L46.652,82.4673a1.2266,1.2266,0,0,1,0-1.2266L59.6239,58.7732a2.4529,2.4529,0,0,0,.3286-1.2265V52h8.0946v5.5466a2.4529,2.4529,0,0,0,.3286,1.2265L81.3476,81.2407A1.2262,1.2262,0,0,1,81.3477,82.4672Z" fill="#fff"/><polygon points="63.547 65.95 75.516 65.95 73.718 63.109 61.907 63.109 63.547 65.95" fill="#fff"/><polygon points="66 70 67.715 72.97 79.927 72.97 78.165 70 66 70" fill="#fff"/></svg>